<svg xmlns="http://www.w3.org/2000/svg" width="10" height="17" fill="none"><path fill="#030A1A" d="M4.68 2.889c.899 0 1.63.754 1.63 1.682 0 .924-.731 1.679-1.63 1.679-.898 0-1.629-.755-1.629-1.68 0-.927.73-1.681 1.63-1.681Zm0 5.74c2.17 0 3.935-1.82 3.935-4.058C8.615 2.33 6.851.509 4.68.509 2.51.509.748 2.33.748 4.57.748 6.808 2.51 8.63 4.68 8.63Zm1.592 3.314a7.29 7.29 0 0 0 2.284-.978c.538-.349.7-1.084.362-1.64a1.13 1.13 0 0 0-1.59-.374 4.866 4.866 0 0 1-5.297 0 1.127 1.127 0 0 0-1.589.375 1.213 1.213 0 0 0 .363 1.64 7.29 7.29 0 0 0 2.284.977l-2.2 2.269a1.218 1.218 0 0 0 0 1.682c.227.231.52.349.814.349.295 0 .59-.118.818-.35l2.16-2.229 2.162 2.23c.449.466 1.177.466 1.629 0 .45-.464.45-1.219 0-1.682l-2.2-2.269Z"/></svg>